<?xml version="1.0" encoding="UTF-8"?> <!-- Generator: Adobe Illustrator 19.2.0, SVG Export Plug-In . SVG Version: 6.00 Build 0) --> <svg xmlns="http://www.w3.org/2000/svg" xmlns:xlink="http://www.w3.org/1999/xlink" id="Layer_1" x="0px" y="0px" viewBox="0 0 1792.9 500" style="enable-background:new 0 0 1792.9 500;" xml:space="preserve"> <style type="text/css"> .st0{opacity:0.8;enable-background:new ;} .st1{fill:#FFFFFF;} .st2{opacity:0.8;fill:none;stroke:#FFFFFF;stroke-width:30;stroke-linecap:square;stroke-linejoin:round;stroke-miterlimit:10;} </style> <g class="st0"> <path class="st1" d="M721.6,258.6l-16,15.1V298h-21.5V170.4h21.5v77.1l44.5-41.3H776l-38.4,38.5l42,53.3h-26.1L721.6,258.6z"></path> <path class="st1" d="M845.8,205.1v20.5c-1.9-0.3-3.4-0.5-5-0.5c-16.3,0-26.7,9.6-26.7,28.4V298h-21.5v-91.8h20.5v13.4 C819.3,209.9,830.5,205.1,845.8,205.1z"></path> <path class="st1" d="M953.5,206.2l-43,99.2c-8.4,20.8-20.1,27.2-35.4,27.2c-9.1,0-18.7-3.1-24.6-8.4l8.6-15.8 c4.1,4,10,6.4,15.8,6.4c7.6,0,12-3.6,16.2-12.7l1.5-3.6l-40.1-92.2h22.4l28.9,67.9l29.1-67.9h20.6V206.2z"></path> <path class="st1" d="M1064.4,252.1c0,28.6-19.8,47.1-46.6,47.1c-11.7,0-22-4-29.4-12.4v44.5h-21.5V206.2h20.5v12 c7.2-8.8,17.9-13.1,30.4-13.1C1044.6,205.1,1064.4,223.7,1064.4,252.1z M1042.5,252.1c0-17.5-11.7-28.7-27.2-28.7 c-15.5,0-27.3,11.2-27.3,28.7s11.9,28.7,27.3,28.7C1030.9,280.8,1042.5,269.6,1042.5,252.1z"></path> <path class="st1" d="M1140.1,293c-5.2,4.1-12.9,6.2-20.6,6.2c-20.1,0-31.6-10.7-31.6-31V224h-15.1v-17.2h15.1v-21h21.5v21h24.6V224 h-24.6v43.7c0,8.9,4.5,13.8,12.7,13.8c4.5,0,8.8-1.2,12-3.8L1140.1,293z"></path> <path class="st1" d="M1147.1,252.1c0-27.5,20.6-47,48.8-47c28.6,0,49,19.4,49,47c0,27.5-20.5,47.1-49,47.1 C1167.8,299.2,1147.1,279.6,1147.1,252.1z M1223.3,252.1c0-17.5-11.7-28.7-27.3-28.7c-15.5,0-27.2,11.2-27.2,28.7 s11.7,28.7,27.2,28.7C1211.6,280.8,1223.3,269.6,1223.3,252.1z"></path> <path class="st1" d="M1303.1,258.6l-16,15.1V298h-21.5V170.4h21.5v77.1l44.5-41.3h25.8l-38.4,38.5l42,53.3h-26.1L1303.1,258.6z"></path> <path class="st1" d="M1427.3,205.1v20.5c-1.9-0.3-3.4-0.5-5-0.5c-16.3,0-26.7,9.6-26.7,28.4V298h-21.5v-91.8h20.5v13.4 C1400.8,209.9,1412,205.1,1427.3,205.1z"></path> <path class="st1" d="M1437.1,252.1c0-27.5,20.6-47,48.8-47c28.6,0,49,19.4,49,47c0,27.5-20.5,47.1-49,47.1 C1457.8,299.2,1437.1,279.6,1437.1,252.1z M1513.3,252.1c0-17.5-11.7-28.7-27.3-28.7c-15.5,0-27.2,11.2-27.2,28.7 s11.7,28.7,27.2,28.7C1501.6,280.8,1513.3,269.6,1513.3,252.1z"></path> <path class="st1" d="M1646.1,245.4V298h-21.5v-49.9c0-16.3-8.1-24.3-21.8-24.3c-15.3,0-25.6,9.3-25.6,27.7V298h-21.5v-91.8h20.5 V218c7.1-8.4,18.2-12.9,31.6-12.9C1629.8,205.1,1646.1,217.7,1646.1,245.4z"></path> <path class="st1" d="M1750.3,244.2V298H1730v-11.2c-5.2,7.9-15.1,12.4-28.9,12.4c-21,0-34.2-11.5-34.2-27.5 c0-15.3,10.3-27.3,38.2-27.3h23.7V243c0-12.6-7.6-20-22.9-20c-10.3,0-21,3.4-27.9,9.1l-8.4-15.7c9.8-7.6,24.1-11.4,38.9-11.4 C1735,205.1,1750.3,217.7,1750.3,244.2z M1728.8,269.3v-10.7h-22.2c-14.6,0-18.6,5.5-18.6,12.2c0,7.7,6.5,12.7,17.5,12.7 C1716.1,283.6,1725.2,278.7,1728.8,269.3z"></path> </g> <polyline class="st2" points="110.8,311.3 186.3,170.4 261.9,311.3 337.4,170.4 413,311.3 488.5,170.4 564.1,311.3 "></polyline> </svg> 